<svg width="103" height="102" viewBox="0 0 103 102" fill="none" xmlns="http://www.w3.org/2000/svg">
<circle cx="50" cy="50" r="50" fill="#F43F5E" fill-opacity="0.15"/>
<circle cx="53" cy="52" r="50" fill="url(#paint0_linear_71_13)"/>
<path d="M51.103 71.288C47.599 71.288 44.455 70.424 41.671 68.696C38.887 66.92 36.679 64.544 35.047 61.568C33.463 58.544 32.671 55.136 32.671 51.344C32.671 47.552 33.535 44.144 35.263 41.12C37.039 38.096 39.415 35.72 42.391 33.992C45.415 32.216 48.799 31.328 52.543 31.328C56.287 31.328 59.647 32.216 62.623 33.992C65.599 35.72 67.951 38.096 69.679 41.12C71.455 44.144 72.343 47.552 72.343 51.344H69.535C69.535 55.136 68.719 58.544 67.087 61.568C65.503 64.544 63.319 66.92 60.535 68.696C57.751 70.424 54.607 71.288 51.103 71.288ZM52.543 64.808C54.991 64.808 57.175 64.232 59.095 63.08C61.015 61.88 62.527 60.272 63.631 58.256C64.735 56.192 65.287 53.888 65.287 51.344C65.287 48.752 64.735 46.448 63.631 44.432C62.527 42.368 61.015 40.76 59.095 39.608C57.175 38.408 54.991 37.808 52.543 37.808C50.143 37.808 47.959 38.408 45.991 39.608C44.071 40.76 42.535 42.368 41.383 44.432C40.279 46.448 39.727 48.752 39.727 51.344C39.727 53.888 40.279 56.192 41.383 58.256C42.535 60.272 44.071 61.88 45.991 63.08C47.959 64.232 50.143 64.808 52.543 64.808ZM68.671 71.072C67.615 71.072 66.727 70.736 66.007 70.064C65.335 69.344 64.999 68.456 64.999 67.4V56.384L66.367 48.752L72.343 51.344V67.4C72.343 68.456 71.983 69.344 71.263 70.064C70.591 70.736 69.727 71.072 68.671 71.072Z" fill="white"/>
<defs>
<linearGradient id="paint0_linear_71_13" x1="53" y1="2" x2="53" y2="102" gradientUnits="userSpaceOnUse">
<stop stop-color="#F43F5E"/>
<stop offset="1" stop-color="#FF5A5F"/>
</linearGradient>
</defs>
</svg>
